<svg width="20" height="20" viewBox="0 0 20 20" fill="none" xmlns="http://www.w3.org/2000/svg">
<path fill-rule="evenodd" clip-rule="evenodd" d="M5.48871 0H14.4007C17.4274 0 19.8898 2.46235 19.8896 5.48882V14.4008C19.8896 17.4273 17.4274 19.8896 14.4007 19.8896H5.48871C2.46224 19.8896 0 17.4274 0 14.4008V5.48882C0 2.46235 2.46224 0 5.48871 0ZM14.4008 18.1249C16.4544 18.1249 18.1251 16.4544 18.1251 14.4008H18.1249V5.48882C18.1249 3.43541 16.4542 1.76471 14.4007 1.76471H5.48871C3.43529 1.76471 1.76471 3.43541 1.76471 5.48882V14.4008C1.76471 16.4544 3.43529 18.1251 5.48871 18.1249H14.4008Z" fill="black"/>
<path fill-rule="evenodd" clip-rule="evenodd" d="M4.81982 9.94501C4.81982 7.11901 7.11888 4.81995 9.94488 4.81995C12.7709 4.81995 15.0699 7.11901 15.0699 9.94501C15.0699 12.7709 12.7709 15.0698 9.94488 15.0698C7.11888 15.0698 4.81982 12.7709 4.81982 9.94501ZM6.58453 9.94489C6.58453 11.7977 8.09206 13.305 9.94488 13.305C11.7977 13.305 13.3052 11.7977 13.3052 9.94489C13.3052 8.09195 11.7978 6.58454 9.94488 6.58454C8.09194 6.58454 6.58453 8.09195 6.58453 9.94489Z" fill="black"/>
<path d="M15.2848 3.32361C14.9448 3.32361 14.6108 3.46126 14.3707 3.70243C14.1294 3.94243 13.9907 4.27655 13.9907 4.61773C13.9907 4.95784 14.1295 5.29184 14.3707 5.53302C14.6107 5.77302 14.9448 5.91185 15.2848 5.91185C15.626 5.91185 15.959 5.77302 16.2001 5.53302C16.4413 5.29184 16.579 4.95773 16.579 4.61773C16.579 4.27655 16.4413 3.94243 16.2001 3.70243C15.9601 3.46126 15.626 3.32361 15.2848 3.32361Z" fill="black"/>
</svg>
