<svg width="20" height="18" viewBox="0 0 20 18" fill="none" xmlns="http://www.w3.org/2000/svg">
<path d="M20 2.81153C19.2639 3.1377 18.474 3.35891 17.6442 3.45767C18.4915 2.95025 19.1401 2.14542 19.4476 1.18934C18.6527 1.65924 17.7754 2.00045 16.8405 2.18542C16.0919 1.38682 15.0271 0.889404 13.8461 0.889404C11.5803 0.889404 9.74311 2.72656 9.74311 4.99114C9.74311 5.31231 9.77935 5.62601 9.84935 5.92597C6.44 5.75473 3.41683 4.1213 1.39346 1.63924C1.03977 2.24414 0.838562 2.94898 0.838562 3.70137C0.838562 5.12486 1.56343 6.38087 2.66324 7.11571C1.99085 7.09323 1.35846 6.90826 0.804837 6.60081V6.65205C0.804837 8.63918 2.21958 10.2976 4.09546 10.6751C3.75177 10.7675 3.38935 10.8188 3.01441 10.8188C2.74948 10.8188 2.49327 10.7925 2.24206 10.7425C2.76444 12.3735 4.27918 13.5595 6.07386 13.592C4.67036 14.6918 2.90069 15.3454 0.978562 15.3454C0.647386 15.3454 0.321176 15.3254 0 15.2892C1.81592 16.4553 3.97177 17.1351 6.28882 17.1351C13.8361 17.1351 17.9616 10.8838 17.9616 5.46231L17.9479 4.93117C18.754 4.35623 19.4513 3.63388 20 2.81153Z" fill="black"/>
</svg>
