<svg width="12" height="20" viewBox="0 0 12 20" fill="none" xmlns="http://www.w3.org/2000/svg">
<path d="M10.7026 0.00412371L8.13252 0C5.2451 0 3.37912 1.91443 3.37912 4.87753V7.12639H0.794993C0.571694 7.12639 0.390869 7.30742 0.390869 7.53072V10.7891C0.390869 11.0124 0.5719 11.1932 0.794993 11.1932H3.37912V19.4151C3.37912 19.6383 3.55994 19.8192 3.78324 19.8192H7.15479C7.37809 19.8192 7.55891 19.6381 7.55891 19.4151V11.1932H10.5804C10.8037 11.1932 10.9845 11.0124 10.9845 10.7891L10.9857 7.53072C10.9857 7.4235 10.943 7.32082 10.8674 7.24495C10.7917 7.16907 10.6886 7.12639 10.5814 7.12639H7.55891V5.22C7.55891 4.30371 7.77726 3.83856 8.97087 3.83856L10.7022 3.83794C10.9253 3.83794 11.1061 3.65691 11.1061 3.43381V0.408247C11.1061 0.185361 10.9255 0.00453608 10.7026 0.00412371Z" fill="black"/>
</svg>
