<svg width="30" height="30" viewBox="0 0 30 30" fill="none" xmlns="http://www.w3.org/2000/svg">
<g opacity="0.54">
<path d="M20.3444 14.3276H13.1837V16.7145H17.5524C16.9007 18.7896 14.9624 20.2948 12.6722 20.2948C9.84728 20.2948 7.5574 18.0048 7.5574 15.18C7.5574 12.3552 9.84736 10.0653 12.6722 10.0653C14.0947 10.0653 15.3813 10.6461 16.3084 11.5834L18.041 9.70017C16.6573 8.34428 14.7626 7.50793 12.6722 7.50793C8.43496 7.50789 5 10.9429 5 15.18C5 19.4172 8.43496 22.8523 12.6722 22.8523C16.3839 22.8523 19.6335 20.2163 20.3444 16.7145V14.3276L20.3444 14.3276Z" fill="black"/>
<path d="M24.9942 14.3236H23.5295V12.8589H22.274V14.3236H20.8093V15.579H22.274V17.0437H23.5295V15.579H24.9942V14.3236Z" fill="black"/>
</g>
</svg>
